<svg version="1.1" id="Layer_1" xmlns="http://www.w3.org/2000/svg" xmlns:xlink="http://www.w3.org/1999/xlink" viewBox="0 0 1600 795">
<g>
	<g id="XMLID_13_">
		<g id="XMLID_32_">
			<path id="XMLID_33_" fill="#5FC3A5" d="M802.3,347.1c20.6,0,38.3,10.4,45.8,29.7h-19.4c-5.3-9.9-14.6-14.9-26.4-14.9
				c-19.6,0-33.8,13.9-33.8,35.6c0,21.7,14.2,35.8,33.8,35.8c11.8,0,21.2-5,26.4-14.9h19.4c-7.5,19.3-25.3,29.5-45.8,29.5
				c-27.8,0-50.4-20.7-50.4-50.4C751.9,368,774.4,347.1,802.3,347.1z"/>
		</g>
		<g>
			<path fill="none" stroke="#646EA0" stroke-width="17" stroke-miterlimit="10" d="M746.9,344.4c13.6-13.6,32.4-22,53.1-22c41.5,0,75.1,33.6,75.1,75.1s-33.6,75.1-75.1,75.1
				c-20.7,0-39.5-8.4-53.1-22"/>
		</g>
		<g>
			<path fill="none" stroke="#646EA0" stroke-width="17" stroke-miterlimit="10" d="M722.8,320.3c19.8-19.8,47-32,77.2-32c30.1,0,57.4,12.2,77.2,32"/>
		</g>
		<g>
			<path fill="none" stroke="#646EA0" stroke-width="17" stroke-miterlimit="10" d="M877.2,474.7c-19.8,19.8-47,32-77.2,32c-30.1,0-57.4-12.2-77.2-32"/>
		</g>
		<g>
			<path fill="none" stroke="#5FC3A5" stroke-width="17" stroke-miterlimit="10" d="M942,397.5c0,78.4-63.6,142-142,142c-39.2,0-74.7-15.9-100.4-41.6"/>
			<path fill="none" stroke="#5FC3A5" stroke-width="17" stroke-miterlimit="10" d="M658,397.5c0-78.4,63.6-142,142-142c39.2,0,74.7,15.9,100.4,41.6"/>
		</g>
	</g>
	<g>
		<g>
			<g>
				<g>
					<line fill="none" stroke="#FFFFFF" stroke-linecap="round" stroke-linejoin="round" stroke-miterlimit="10" x1="979.2" y1="398" x2="970.7" y2="398"/>
					<line fill="none" stroke="#FFFFFF" stroke-linecap="round" stroke-linejoin="round" stroke-miterlimit="10" x1="979.1" y1="402.1" x2="970.6" y2="401.9"/>
					<line fill="none" stroke="#FFFFFF" stroke-linecap="round" stroke-linejoin="round" stroke-miterlimit="10" x1="979" y1="406.2" x2="970.5" y2="405.8"/>
					<line fill="none" stroke="#FFFFFF" stroke-linecap="round" stroke-linejoin="round" stroke-miterlimit="10" x1="978.8" y1="410.2" x2="970.3" y2="409.6"/>
					<line fill="none" x1="978.4" y1="414.3" x2="970" y2="413.5"/>
				</g>
				<g>
					<line fill="none" stroke="#FFFFFF" stroke-linecap="round" stroke-linejoin="round" stroke-miterlimit="10" x1="978.4" y1="414.8" x2="969.9" y2="414"/>
					<line fill="none" stroke="#FFFFFF" stroke-linecap="round" stroke-linejoin="round" stroke-miterlimit="10" x1="977.9" y1="418.8" x2="969.5" y2="417.8"/>
					<line fill="none" stroke="#FFFFFF" stroke-linecap="round" stroke-linejoin="round" stroke-miterlimit="10" x1="977.4" y1="422.9" x2="969" y2="421.7"/>
					<line fill="none" stroke="#FFFFFF" stroke-linecap="round" stroke-linejoin="round" stroke-miterlimit="10" x1="976.8" y1="426.9" x2="968.4" y2="425.5"/>
					<line fill="none" x1="976.1" y1="430.9" x2="967.7" y2="429.3"/>
				</g>
				<g>
					<line fill="none" stroke="#FFFFFF" stroke-linecap="round" stroke-linejoin="round" stroke-miterlimit="10" x1="976" y1="431.4" x2="967.7" y2="429.8"/>
					<line fill="none" stroke="#FFFFFF" stroke-linecap="round" stroke-linejoin="round" stroke-miterlimit="10" x1="975.2" y1="435.4" x2="966.9" y2="433.6"/>
					<line fill="none" stroke="#FFFFFF" stroke-linecap="round" stroke-linejoin="round" stroke-miterlimit="10" x1="974.3" y1="439.4" x2="966" y2="437.4"/>
					<line fill="none" stroke="#FFFFFF" stroke-linecap="round" stroke-linejoin="round" stroke-miterlimit="10" x1="973.3" y1="443.3" x2="965.1" y2="441.2"/>
					<line fill="none" x1="972.2" y1="447.3" x2="964" y2="444.9"/>
				</g>
				<g>
					<line fill="none" stroke="#FFFFFF" stroke-linecap="round" stroke-linejoin="round" stroke-miterlimit="10" x1="972.1" y1="447.8" x2="963.9" y2="445.4"/>
					<line fill="none" stroke="#FFFFFF" stroke-linecap="round" stroke-linejoin="round" stroke-miterlimit="10" x1="970.9" y1="451.7" x2="962.8" y2="449.1"/>
					<line fill="none" stroke="#FFFFFF" stroke-linecap="round" stroke-linejoin="round" stroke-miterlimit="10" x1="969.6" y1="455.5" x2="961.6" y2="452.8"/>
					<line fill="none" stroke="#FFFFFF" stroke-linecap="round" stroke-linejoin="round" stroke-miterlimit="10" x1="968.3" y1="459.4" x2="960.3" y2="456.4"/>
					<line fill="none" x1="966.8" y1="463.2" x2="958.9" y2="460.1"/>
				</g>
				<g>
					<line fill="none" stroke="#FFFFFF" stroke-linecap="round" stroke-linejoin="round" stroke-miterlimit="10" x1="966.6" y1="463.6" x2="958.7" y2="460.5"/>
					<line fill="none" stroke="#FFFFFF" stroke-linecap="round" stroke-linejoin="round" stroke-miterlimit="10" x1="965.1" y1="467.4" x2="957.3" y2="464.1"/>
					<line fill="none" stroke="#FFFFFF" stroke-linecap="round" stroke-linejoin="round" stroke-miterlimit="10" x1="963.4" y1="471.1" x2="955.7" y2="467.7"/>
					<line fill="none" stroke="#FFFFFF" stroke-linecap="round" stroke-linejoin="round" stroke-miterlimit="10" x1="961.7" y1="474.9" x2="954.1" y2="471.2"/>
					<line fill="none" x1="959.9" y1="478.5" x2="952.3" y2="474.7"/>
				</g>
				<g>
					<line fill="none" stroke="#FFFFFF" stroke-linecap="round" stroke-linejoin="round" stroke-miterlimit="10" x1="959.7" y1="479" x2="952.1" y2="475.1"/>
					<line fill="none" stroke="#FFFFFF" stroke-linecap="round" stroke-linejoin="round" stroke-miterlimit="10" x1="957.8" y1="482.6" x2="950.3" y2="478.5"/>
					<line fill="none" stroke="#FFFFFF" stroke-linecap="round" stroke-linejoin="round" stroke-miterlimit="10" x1="955.8" y1="486.1" x2="948.4" y2="481.9"/>
					<line fill="none" stroke="#FFFFFF" stroke-linecap="round" stroke-linejoin="round" stroke-miterlimit="10" x1="953.8" y1="489.7" x2="946.5" y2="485.3"/>
					<line fill="none" x1="951.6" y1="493.1" x2="944.4" y2="488.6"/>
				</g>
				<g>
					<line fill="none" stroke="#FFFFFF" stroke-linecap="round" stroke-linejoin="round" stroke-miterlimit="10" x1="951.3" y1="493.5" x2="944.1" y2="489"/>
					<line fill="none" stroke="#FFFFFF" stroke-linecap="round" stroke-linejoin="round" stroke-miterlimit="10" x1="949.1" y1="497" x2="942.1" y2="492.2"/>
					<line fill="none" stroke="#FFFFFF" stroke-linecap="round" stroke-linejoin="round" stroke-miterlimit="10" x1="946.8" y1="500.3" x2="939.8" y2="495.4"/>
					<line fill="none" stroke="#FFFFFF" stroke-linecap="round" stroke-linejoin="round" stroke-miterlimit="10" x1="944.4" y1="503.6" x2="937.6" y2="498.6"/>
					<line fill="none" x1="942" y1="506.9" x2="935.2" y2="501.7"/>
				</g>
				<g>
					<line fill="none" stroke="#FFFFFF" stroke-linecap="round" stroke-linejoin="round" stroke-miterlimit="10" x1="941.7" y1="507.3" x2="934.9" y2="502.1"/>
					<line fill="none" stroke="#FFFFFF" stroke-linecap="round" stroke-linejoin="round" stroke-miterlimit="10" x1="939.1" y1="510.5" x2="932.5" y2="505.1"/>
					<line fill="none" stroke="#FFFFFF" stroke-linecap="round" stroke-linejoin="round" stroke-miterlimit="10" x1="936.5" y1="513.6" x2="930" y2="508.1"/>
					<line fill="none" stroke="#FFFFFF" stroke-linecap="round" stroke-linejoin="round" stroke-miterlimit="10" x1="933.8" y1="516.7" x2="927.5" y2="511"/>
					<line fill="none" x1="931.1" y1="519.7" x2="924.9" y2="513.9"/>
				</g>
				<g>
					<line fill="none" stroke="#FFFFFF" stroke-linecap="round" stroke-linejoin="round" stroke-miterlimit="10" x1="930.7" y1="520.1" x2="924.5" y2="514.2"/>
					<line fill="none" stroke="#FFFFFF" stroke-linecap="round" stroke-linejoin="round" stroke-miterlimit="10" x1="927.9" y1="523" x2="921.9" y2="517.1"/>
					<line fill="none" stroke="#FFFFFF" stroke-linecap="round" stroke-linejoin="round" stroke-miterlimit="10" x1="925" y1="525.9" x2="919.1" y2="519.8"/>
					<line fill="none" stroke="#FFFFFF" stroke-linecap="round" stroke-linejoin="round" stroke-miterlimit="10" x1="922.1" y1="528.7" x2="916.3" y2="522.5"/>
					<line fill="none" x1="919.1" y1="531.4" x2="913.4" y2="525.1"/>
				</g>
				<g>
					<line fill="none" stroke="#FFFFFF" stroke-linecap="round" stroke-linejoin="round" stroke-miterlimit="10" x1="918.7" y1="531.8" x2="913.1" y2="525.4"/>
					<line fill="none" stroke="#FFFFFF" stroke-linecap="round" stroke-linejoin="round" stroke-miterlimit="10" x1="915.6" y1="534.4" x2="910.1" y2="527.9"/>
					<line fill="none" stroke="#FFFFFF" stroke-linecap="round" stroke-linejoin="round" stroke-miterlimit="10" x1="912.5" y1="537" x2="907.1" y2="530.4"/>
					<line fill="none" stroke="#FFFFFF" stroke-linecap="round" stroke-linejoin="round" stroke-miterlimit="10" x1="909.3" y1="539.5" x2="904.1" y2="532.8"/>
					<line fill="none" x1="906" y1="542" x2="901" y2="535.2"/>
				</g>
				<g>
					<line fill="none" stroke="#FFFFFF" stroke-linecap="round" stroke-linejoin="round" stroke-miterlimit="10" x1="905.6" y1="542.3" x2="900.6" y2="535.4"/>
					<line fill="none" stroke="#FFFFFF" stroke-linecap="round" stroke-linejoin="round" stroke-miterlimit="10" x1="902.3" y1="544.7" x2="897.4" y2="537.7"/>
					<line fill="none" stroke="#FFFFFF" stroke-linecap="round" stroke-linejoin="round" stroke-miterlimit="10" x1="898.9" y1="547" x2="894.2" y2="539.9"/>
					<line fill="none" stroke="#FFFFFF" stroke-linecap="round" stroke-linejoin="round" stroke-miterlimit="10" x1="895.5" y1="549.2" x2="891" y2="542"/>
					<line fill="none" x1="892" y1="551.3" x2="887.7" y2="544"/>
				</g>
				<g>
					<line fill="none" stroke="#FFFFFF" stroke-linecap="round" stroke-linejoin="round" stroke-miterlimit="10" x1="891.6" y1="551.6" x2="887.3" y2="544.3"/>
					<line fill="none" stroke="#FFFFFF" stroke-linecap="round" stroke-linejoin="round" stroke-miterlimit="10" x1="888.1" y1="553.6" x2="883.9" y2="546.2"/>
					<line fill="none" stroke="#FFFFFF" stroke-linecap="round" stroke-linejoin="round" stroke-miterlimit="10" x1="884.5" y1="555.6" x2="880.5" y2="548.1"/>
					<line fill="none" stroke="#FFFFFF" stroke-linecap="round" stroke-linejoin="round" stroke-miterlimit="10" x1="880.9" y1="557.4" x2="877" y2="549.9"/>
					<line fill="none" x1="877.2" y1="559.3" x2="873.6" y2="551.6"/>
				</g>
				<g>
					<line fill="none" stroke="#FFFFFF" stroke-linecap="round" stroke-linejoin="round" stroke-miterlimit="10" x1="876.8" y1="559.5" x2="873.1" y2="551.8"/>
					<line fill="none" stroke="#FFFFFF" stroke-linecap="round" stroke-linejoin="round" stroke-miterlimit="10" x1="873.1" y1="561.2" x2="869.6" y2="553.4"/>
					<line fill="none" stroke="#FFFFFF" stroke-linecap="round" stroke-linejoin="round" stroke-miterlimit="10" x1="869.3" y1="562.8" x2="866.1" y2="555"/>
					<line fill="none" stroke="#FFFFFF" stroke-linecap="round" stroke-linejoin="round" stroke-miterlimit="10" x1="865.6" y1="564.3" x2="862.4" y2="556.4"/>
					<line fill="none" x1="861.8" y1="565.8" x2="858.8" y2="557.8"/>
				</g>
				<g>
					<line fill="none" stroke="#FFFFFF" stroke-linecap="round" stroke-linejoin="round" stroke-miterlimit="10" x1="861.3" y1="566" x2="858.4" y2="558"/>
					<line fill="none" stroke="#FFFFFF" stroke-linecap="round" stroke-linejoin="round" stroke-miterlimit="10" x1="857.4" y1="567.3" x2="854.7" y2="559.2"/>
					<line fill="none" stroke="#FFFFFF" stroke-linecap="round" stroke-linejoin="round" stroke-miterlimit="10" x1="853.6" y1="568.6" x2="851" y2="560.5"/>
					<line fill="none" stroke="#FFFFFF" stroke-linecap="round" stroke-linejoin="round" stroke-miterlimit="10" x1="849.6" y1="569.7" x2="847.3" y2="561.6"/>
					<line fill="none" x1="845.7" y1="570.8" x2="843.6" y2="562.6"/>
				</g>
				<g>
					<line fill="none" stroke="#FFFFFF" stroke-linecap="round" stroke-linejoin="round" stroke-miterlimit="10" x1="845.2" y1="571" x2="843.1" y2="562.8"/>
					<line fill="none" stroke="#FFFFFF" stroke-linecap="round" stroke-linejoin="round" stroke-miterlimit="10" x1="841.3" y1="571.9" x2="839.3" y2="563.6"/>
					<line fill="none" stroke="#FFFFFF" stroke-linecap="round" stroke-linejoin="round" stroke-miterlimit="10" x1="837.3" y1="572.8" x2="835.5" y2="564.5"/>
					<line fill="none" stroke="#FFFFFF" stroke-linecap="round" stroke-linejoin="round" stroke-miterlimit="10" x1="833.3" y1="573.6" x2="831.7" y2="565.3"/>
					<line fill="none" x1="829.3" y1="574.3" x2="827.9" y2="565.9"/>
				</g>
				<g>
					<line fill="none" stroke="#FFFFFF" stroke-linecap="round" stroke-linejoin="round" stroke-miterlimit="10" x1="828.8" y1="574.4" x2="827.4" y2="566"/>
					<line fill="none" stroke="#FFFFFF" stroke-linecap="round" stroke-linejoin="round" stroke-miterlimit="10" x1="824.7" y1="575" x2="823.6" y2="566.6"/>
					<line fill="none" stroke="#FFFFFF" stroke-linecap="round" stroke-linejoin="round" stroke-miterlimit="10" x1="820.7" y1="575.5" x2="819.7" y2="567.1"/>
					<line fill="none" stroke="#FFFFFF" stroke-linecap="round" stroke-linejoin="round" stroke-miterlimit="10" x1="816.7" y1="576" x2="815.9" y2="567.5"/>
					<line fill="none" x1="812.6" y1="576.3" x2="812" y2="567.8"/>
				</g>
				<g>
					<line fill="none" stroke="#FFFFFF" stroke-linecap="round" stroke-linejoin="round" stroke-miterlimit="10" x1="812.1" y1="576.3" x2="811.5" y2="567.8"/>
					<line fill="none" stroke="#FFFFFF" stroke-linecap="round" stroke-linejoin="round" stroke-miterlimit="10" x1="808" y1="576.5" x2="807.6" y2="568.1"/>
					<line fill="none" stroke="#FFFFFF" stroke-linecap="round" stroke-linejoin="round" stroke-miterlimit="10" x1="803.9" y1="576.7" x2="803.8" y2="568.2"/>
					<line fill="none" stroke="#FFFFFF" stroke-linecap="round" stroke-linejoin="round" stroke-miterlimit="10" x1="799.9" y1="576.7" x2="799.9" y2="568.2"/>
					<line fill="none" x1="795.8" y1="576.6" x2="796" y2="568.1"/>
				</g>
				<g>
					<line fill="none" stroke="#FFFFFF" stroke-linecap="round" stroke-linejoin="round" stroke-miterlimit="10" x1="795.3" y1="576.6" x2="795.5" y2="568.1"/>
					<line fill="none" stroke="#FFFFFF" stroke-linecap="round" stroke-linejoin="round" stroke-miterlimit="10" x1="791.2" y1="576.5" x2="791.6" y2="568"/>
					<line fill="none" stroke="#FFFFFF" stroke-linecap="round" stroke-linejoin="round" stroke-miterlimit="10" x1="787.2" y1="576.2" x2="787.8" y2="567.8"/>
					<line fill="none" stroke="#FFFFFF" stroke-linecap="round" stroke-linejoin="round" stroke-miterlimit="10" x1="783.1" y1="575.9" x2="783.9" y2="567.5"/>
					<line fill="none" x1="779" y1="575.5" x2="780" y2="567"/>
				</g>
				<g>
					<line fill="none" stroke="#FFFFFF" stroke-linecap="round" stroke-linejoin="round" stroke-miterlimit="10" x1="778.5" y1="575.4" x2="779.5" y2="567"/>
					<line fill="none" stroke="#FFFFFF" stroke-linecap="round" stroke-linejoin="round" stroke-miterlimit="10" x1="774.5" y1="574.9" x2="775.7" y2="566.5"/>
					<line fill="none" stroke="#FFFFFF" stroke-linecap="round" stroke-linejoin="round" stroke-miterlimit="10" x1="770.5" y1="574.3" x2="771.9" y2="565.9"/>
					<line fill="none" stroke="#FFFFFF" stroke-linecap="round" stroke-linejoin="round" stroke-miterlimit="10" x1="766.5" y1="573.6" x2="768" y2="565.2"/>
					<line fill="none" x1="762.5" y1="572.8" x2="764.2" y2="564.5"/>
				</g>
				<g>
					<line fill="none" stroke="#FFFFFF" stroke-linecap="round" stroke-linejoin="round" stroke-miterlimit="10" x1="762" y1="572.7" x2="763.8" y2="564.4"/>
					<line fill="none" stroke="#FFFFFF" stroke-linecap="round" stroke-linejoin="round" stroke-miterlimit="10" x1="758" y1="571.8" x2="760" y2="563.5"/>
					<line fill="none" stroke="#FFFFFF" stroke-linecap="round" stroke-linejoin="round" stroke-miterlimit="10" x1="754" y1="570.8" x2="756.2" y2="562.6"/>
					<line fill="none" stroke="#FFFFFF" stroke-linecap="round" stroke-linejoin="round" stroke-miterlimit="10" x1="750.1" y1="569.7" x2="752.5" y2="561.5"/>
					<line fill="none" x1="746.2" y1="568.5" x2="748.7" y2="560.4"/>
				</g>
				<g>
					<line fill="none" stroke="#FFFFFF" stroke-linecap="round" stroke-linejoin="round" stroke-miterlimit="10" x1="745.7" y1="568.4" x2="748.3" y2="560.3"/>
					<line fill="none" stroke="#FFFFFF" stroke-linecap="round" stroke-linejoin="round" stroke-miterlimit="10" x1="741.9" y1="567.1" x2="744.6" y2="559"/>
					<line fill="none" stroke="#FFFFFF" stroke-linecap="round" stroke-linejoin="round" stroke-miterlimit="10" x1="738" y1="565.7" x2="740.9" y2="557.8"/>
					<line fill="none" stroke="#FFFFFF" stroke-linecap="round" stroke-linejoin="round" stroke-miterlimit="10" x1="734.2" y1="564.2" x2="737.3" y2="556.3"/>
					<line fill="none" x1="730.4" y1="562.7" x2="733.7" y2="554.9"/>
				</g>
				<g>
					<line fill="none" stroke="#FFFFFF" stroke-linecap="round" stroke-linejoin="round" stroke-miterlimit="10" x1="730" y1="562.5" x2="733.3" y2="554.7"/>
					<line fill="none" stroke="#FFFFFF" stroke-linecap="round" stroke-linejoin="round" stroke-miterlimit="10" x1="726.2" y1="560.9" x2="729.7" y2="553.1"/>
					<line fill="none" stroke="#FFFFFF" stroke-linecap="round" stroke-linejoin="round" stroke-miterlimit="10" x1="722.5" y1="559.2" x2="726.2" y2="551.5"/>
					<line fill="none" stroke="#FFFFFF" stroke-linecap="round" stroke-linejoin="round" stroke-miterlimit="10" x1="718.9" y1="557.3" x2="722.7" y2="549.8"/>
					<line fill="none" x1="715.3" y1="555.5" x2="719.3" y2="548"/>
				</g>
				<g>
					<line fill="none" stroke="#FFFFFF" stroke-linecap="round" stroke-linejoin="round" stroke-miterlimit="10" x1="714.8" y1="555.2" x2="718.9" y2="547.8"/>
					<line fill="none" stroke="#FFFFFF" stroke-linecap="round" stroke-linejoin="round" stroke-miterlimit="10" x1="711.3" y1="553.2" x2="715.5" y2="545.8"/>
					<line fill="none" stroke="#FFFFFF" stroke-linecap="round" stroke-linejoin="round" stroke-miterlimit="10" x1="707.7" y1="551.2" x2="712.1" y2="543.9"/>
					<line fill="none" stroke="#FFFFFF" stroke-linecap="round" stroke-linejoin="round" stroke-miterlimit="10" x1="704.3" y1="549" x2="708.8" y2="541.8"/>
					<line fill="none" x1="700.9" y1="546.8" x2="705.6" y2="539.7"/>
				</g>
				<g>
					<line fill="none" stroke="#FFFFFF" stroke-linecap="round" stroke-linejoin="round" stroke-miterlimit="10" x1="700.4" y1="546.6" x2="705.2" y2="539.5"/>
					<line fill="none" stroke="#FFFFFF" stroke-linecap="round" stroke-linejoin="round" stroke-miterlimit="10" x1="697.1" y1="544.2" x2="702" y2="537.3"/>
					<line fill="none" stroke="#FFFFFF" stroke-linecap="round" stroke-linejoin="round" stroke-miterlimit="10" x1="693.8" y1="541.9" x2="698.8" y2="535"/>
					<line fill="none" stroke="#FFFFFF" stroke-linecap="round" stroke-linejoin="round" stroke-miterlimit="10" x1="690.5" y1="539.4" x2="695.7" y2="532.7"/>
					<line fill="none" x1="687.3" y1="536.9" x2="692.7" y2="530.3"/>
				</g>
				<g>
					<line fill="none" stroke="#FFFFFF" stroke-linecap="round" stroke-linejoin="round" stroke-miterlimit="10" x1="686.9" y1="536.6" x2="692.3" y2="530"/>
					<line fill="none" stroke="#FFFFFF" stroke-linecap="round" stroke-linejoin="round" stroke-miterlimit="10" x1="683.8" y1="533.9" x2="689.3" y2="527.5"/>
					<line fill="none" stroke="#FFFFFF" stroke-linecap="round" stroke-linejoin="round" stroke-miterlimit="10" x1="680.7" y1="531.3" x2="686.4" y2="524.9"/>
					<line fill="none" stroke="#FFFFFF" stroke-linecap="round" stroke-linejoin="round" stroke-miterlimit="10" x1="677.7" y1="528.5" x2="683.5" y2="522.3"/>
					<line fill="none" x1="674.8" y1="525.7" x2="680.7" y2="519.6"/>
				</g>
				<g>
					<line fill="none" stroke="#FFFFFF" stroke-linecap="round" stroke-linejoin="round" stroke-miterlimit="10" x1="674.4" y1="525.3" x2="680.4" y2="519.3"/>
					<line fill="none" stroke="#FFFFFF" stroke-linecap="round" stroke-linejoin="round" stroke-miterlimit="10" x1="671.5" y1="522.5" x2="677.6" y2="516.5"/>
					<line fill="none" stroke="#FFFFFF" stroke-linecap="round" stroke-linejoin="round" stroke-miterlimit="10" x1="668.7" y1="519.5" x2="675" y2="513.7"/>
					<line fill="none" stroke="#FFFFFF" stroke-linecap="round" stroke-linejoin="round" stroke-miterlimit="10" x1="666" y1="516.5" x2="672.3" y2="510.8"/>
					<line fill="none" x1="663.3" y1="513.4" x2="669.8" y2="507.9"/>
				</g>
				<g>
					<line fill="none" stroke="#FFFFFF" stroke-linecap="round" stroke-linejoin="round" stroke-miterlimit="10" x1="663" y1="513" x2="669.5" y2="507.5"/>
					<line fill="none" stroke="#FFFFFF" stroke-linecap="round" stroke-linejoin="round" stroke-miterlimit="10" x1="660.4" y1="509.9" x2="667" y2="504.5"/>
					<line fill="none" stroke="#FFFFFF" stroke-linecap="round" stroke-linejoin="round" stroke-miterlimit="10" x1="657.9" y1="506.7" x2="664.6" y2="501.5"/>
					<line fill="none" stroke="#FFFFFF" stroke-linecap="round" stroke-linejoin="round" stroke-miterlimit="10" x1="655.4" y1="503.4" x2="662.3" y2="498.4"/>
					<line fill="none" x1="653.1" y1="500.1" x2="660" y2="495.2"/>
				</g>
				<g>
					<line fill="none" stroke="#FFFFFF" stroke-linecap="round" stroke-linejoin="round" stroke-miterlimit="10" x1="652.8" y1="499.7" x2="659.7" y2="494.8"/>
					<line fill="none" stroke="#FFFFFF" stroke-linecap="round" stroke-linejoin="round" stroke-miterlimit="10" x1="650.5" y1="496.3" x2="657.6" y2="491.6"/>
					<line fill="none" stroke="#FFFFFF" stroke-linecap="round" stroke-linejoin="round" stroke-miterlimit="10" x1="648.3" y1="492.9" x2="655.5" y2="488.4"/>
					<line fill="none" stroke="#FFFFFF" stroke-linecap="round" stroke-linejoin="round" stroke-miterlimit="10" x1="646.1" y1="489.4" x2="653.4" y2="485.1"/>
					<line fill="none" x1="644.1" y1="485.9" x2="651.5" y2="481.7"/>
				</g>
				<g>
					<line fill="none" stroke="#FFFFFF" stroke-linecap="round" stroke-linejoin="round" stroke-miterlimit="10" x1="643.8" y1="485.5" x2="651.2" y2="481.3"/>
					<line fill="none" stroke="#FFFFFF" stroke-linecap="round" stroke-linejoin="round" stroke-miterlimit="10" x1="641.9" y1="481.9" x2="649.3" y2="477.9"/>
					<line fill="none" stroke="#FFFFFF" stroke-linecap="round" stroke-linejoin="round" stroke-miterlimit="10" x1="640" y1="478.3" x2="647.6" y2="474.4"/>
					<line fill="none" stroke="#FFFFFF" stroke-linecap="round" stroke-linejoin="round" stroke-miterlimit="10" x1="638.2" y1="474.6" x2="645.8" y2="471"/>
					<line fill="none" x1="636.5" y1="470.9" x2="644.2" y2="467.4"/>
				</g>
				<g>
					<line fill="none" stroke="#FFFFFF" stroke-linecap="round" stroke-linejoin="round" stroke-miterlimit="10" x1="636.3" y1="470.5" x2="644" y2="467"/>
					<line fill="none" stroke="#FFFFFF" stroke-linecap="round" stroke-linejoin="round" stroke-miterlimit="10" x1="634.6" y1="466.7" x2="642.5" y2="463.4"/>
					<line fill="none" stroke="#FFFFFF" stroke-linecap="round" stroke-linejoin="round" stroke-miterlimit="10" x1="633.1" y1="462.9" x2="641" y2="459.8"/>
					<line fill="none" stroke="#FFFFFF" stroke-linecap="round" stroke-linejoin="round" stroke-miterlimit="10" x1="631.6" y1="459.1" x2="639.6" y2="456.2"/>
					<line fill="none" x1="630.3" y1="455.3" x2="638.4" y2="452.5"/>
				</g>
				<g>
					<line fill="none" stroke="#FFFFFF" stroke-linecap="round" stroke-linejoin="round" stroke-miterlimit="10" x1="630.2" y1="454.8" x2="638.2" y2="452.1"/>
					<line fill="none" stroke="#FFFFFF" stroke-linecap="round" stroke-linejoin="round" stroke-miterlimit="10" x1="628.9" y1="450.9" x2="637" y2="448.4"/>
					<line fill="none" stroke="#FFFFFF" stroke-linecap="round" stroke-linejoin="round" stroke-miterlimit="10" x1="627.7" y1="447" x2="635.9" y2="444.7"/>
					<line fill="none" stroke="#FFFFFF" stroke-linecap="round" stroke-linejoin="round" stroke-miterlimit="10" x1="626.6" y1="443.1" x2="634.8" y2="440.9"/>
					<line fill="none" x1="625.7" y1="439.1" x2="633.9" y2="437.2"/>
				</g>
				<g>
					<line fill="none" stroke="#FFFFFF" stroke-linecap="round" stroke-linejoin="round" stroke-miterlimit="10" x1="625.5" y1="438.6" x2="633.8" y2="436.7"/>
					<line fill="none" stroke="#FFFFFF" stroke-linecap="round" stroke-linejoin="round" stroke-miterlimit="10" x1="624.6" y1="434.7" x2="633" y2="432.9"/>
					<line fill="none" stroke="#FFFFFF" stroke-linecap="round" stroke-linejoin="round" stroke-miterlimit="10" x1="623.9" y1="430.7" x2="632.2" y2="429.1"/>
					<line fill="none" stroke="#FFFFFF" stroke-linecap="round" stroke-linejoin="round" stroke-miterlimit="10" x1="623.1" y1="426.7" x2="631.5" y2="425.3"/>
					<line fill="none" x1="622.5" y1="422.6" x2="631" y2="421.4"/>
				</g>
				<g>
					<line fill="none" stroke="#FFFFFF" stroke-linecap="round" stroke-linejoin="round" stroke-miterlimit="10" x1="622.5" y1="422.1" x2="630.9" y2="421"/>
					<line fill="none" stroke="#FFFFFF" stroke-linecap="round" stroke-linejoin="round" stroke-miterlimit="10" x1="622" y1="418.1" x2="630.4" y2="417.1"/>
					<line fill="none" stroke="#FFFFFF" stroke-linecap="round" stroke-linejoin="round" stroke-miterlimit="10" x1="621.5" y1="414" x2="630" y2="413.3"/>
					<line fill="none" stroke="#FFFFFF" stroke-linecap="round" stroke-linejoin="round" stroke-miterlimit="10" x1="621.2" y1="410" x2="629.7" y2="409.4"/>
					<line fill="none" x1="621" y1="405.9" x2="629.5" y2="405.5"/>
				</g>
				<g>
					<line fill="none" stroke="#FFFFFF" stroke-linecap="round" stroke-linejoin="round" stroke-miterlimit="10" x1="620.9" y1="405.4" x2="629.4" y2="405"/>
					<line fill="none" stroke="#FFFFFF" stroke-linecap="round" stroke-linejoin="round" stroke-miterlimit="10" x1="620.8" y1="401.3" x2="629.3" y2="401.1"/>
					<line fill="none" stroke="#FFFFFF" stroke-linecap="round" stroke-linejoin="round" stroke-miterlimit="10" x1="620.8" y1="397.2" x2="629.3" y2="397.3"/>
					<line fill="none" stroke="#FFFFFF" stroke-linecap="round" stroke-linejoin="round" stroke-miterlimit="10" x1="620.9" y1="393.2" x2="629.4" y2="393.4"/>
					<line fill="none" x1="621" y1="389.1" x2="629.5" y2="389.5"/>
				</g>
				<g>
					<line fill="none" stroke="#FFFFFF" stroke-linecap="round" stroke-linejoin="round" stroke-miterlimit="10" x1="621" y1="388.6" x2="629.5" y2="389"/>
					<line fill="none" stroke="#FFFFFF" stroke-linecap="round" stroke-linejoin="round" stroke-miterlimit="10" x1="621.3" y1="384.5" x2="629.7" y2="385.1"/>
					<line fill="none" stroke="#FFFFFF" stroke-linecap="round" stroke-linejoin="round" stroke-miterlimit="10" x1="621.6" y1="380.5" x2="630" y2="381.3"/>
					<line fill="none" stroke="#FFFFFF" stroke-linecap="round" stroke-linejoin="round" stroke-miterlimit="10" x1="622" y1="376.4" x2="630.5" y2="377.4"/>
					<line fill="none" x1="622.5" y1="372.4" x2="631" y2="373.6"/>
				</g>
				<g>
					<line fill="none" stroke="#FFFFFF" stroke-linecap="round" stroke-linejoin="round" stroke-miterlimit="10" x1="622.6" y1="371.9" x2="631" y2="373.1"/>
					<line fill="none" stroke="#FFFFFF" stroke-linecap="round" stroke-linejoin="round" stroke-miterlimit="10" x1="623.2" y1="367.8" x2="631.6" y2="369.2"/>
					<line fill="none" stroke="#FFFFFF" stroke-linecap="round" stroke-linejoin="round" stroke-miterlimit="10" x1="624" y1="363.8" x2="632.3" y2="365.4"/>
					<line fill="none" stroke="#FFFFFF" stroke-linecap="round" stroke-linejoin="round" stroke-miterlimit="10" x1="624.7" y1="359.8" x2="633.1" y2="361.6"/>
					<line fill="none" x1="625.7" y1="355.9" x2="633.9" y2="357.8"/>
				</g>
				<g>
					<line fill="none" stroke="#FFFFFF" stroke-linecap="round" stroke-linejoin="round" stroke-miterlimit="10" x1="625.8" y1="355.4" x2="634" y2="357.4"/>
					<line fill="none" stroke="#FFFFFF" stroke-linecap="round" stroke-linejoin="round" stroke-miterlimit="10" x1="626.8" y1="351.4" x2="635" y2="353.6"/>
					<line fill="none" stroke="#FFFFFF" stroke-linecap="round" stroke-linejoin="round" stroke-miterlimit="10" x1="627.9" y1="347.5" x2="636" y2="349.9"/>
					<line fill="none" stroke="#FFFFFF" stroke-linecap="round" stroke-linejoin="round" stroke-miterlimit="10" x1="629" y1="343.6" x2="637.1" y2="346.1"/>
					<line fill="none" x1="630.3" y1="339.7" x2="638.4" y2="342.5"/>
				</g>
				<g>
					<line fill="none" stroke="#FFFFFF" stroke-linecap="round" stroke-linejoin="round" stroke-miterlimit="10" x1="630.5" y1="339.2" x2="638.5" y2="342"/>
					<line fill="none" stroke="#FFFFFF" stroke-linecap="round" stroke-linejoin="round" stroke-miterlimit="10" x1="631.8" y1="335.4" x2="639.8" y2="338.3"/>
					<line fill="none" stroke="#FFFFFF" stroke-linecap="round" stroke-linejoin="round" stroke-miterlimit="10" x1="633.3" y1="331.6" x2="641.2" y2="334.7"/>
					<line fill="none" stroke="#FFFFFF" stroke-linecap="round" stroke-linejoin="round" stroke-miterlimit="10" x1="634.8" y1="327.8" x2="642.6" y2="331.1"/>
					<line fill="none" x1="636.5" y1="324.1" x2="644.2" y2="327.6"/>
				</g>
				<g>
					<line fill="none" stroke="#FFFFFF" stroke-linecap="round" stroke-linejoin="round" stroke-miterlimit="10" x1="636.7" y1="323.6" x2="644.4" y2="327.1"/>
					<line fill="none" stroke="#FFFFFF" stroke-linecap="round" stroke-linejoin="round" stroke-miterlimit="10" x1="638.4" y1="319.9" x2="646" y2="323.6"/>
					<line fill="none" stroke="#FFFFFF" stroke-linecap="round" stroke-linejoin="round" stroke-miterlimit="10" x1="640.2" y1="316.3" x2="647.8" y2="320.1"/>
					<line fill="none" stroke="#FFFFFF" stroke-linecap="round" stroke-linejoin="round" stroke-miterlimit="10" x1="642.1" y1="312.6" x2="649.6" y2="316.7"/>
					<line fill="none" x1="644.1" y1="309.1" x2="651.5" y2="313.3"/>
				</g>
				<g>
					<line fill="none" stroke="#FFFFFF" stroke-linecap="round" stroke-linejoin="round" stroke-miterlimit="10" x1="644.3" y1="308.7" x2="651.7" y2="312.9"/>
					<line fill="none" stroke="#FFFFFF" stroke-linecap="round" stroke-linejoin="round" stroke-miterlimit="10" x1="646.4" y1="305.1" x2="653.7" y2="309.5"/>
					<line fill="none" stroke="#FFFFFF" stroke-linecap="round" stroke-linejoin="round" stroke-miterlimit="10" x1="648.5" y1="301.7" x2="655.7" y2="306.2"/>
					<line fill="none" stroke="#FFFFFF" stroke-linecap="round" stroke-linejoin="round" stroke-miterlimit="10" x1="650.7" y1="298.2" x2="657.8" y2="303"/>
					<line fill="none" x1="653.1" y1="294.9" x2="660" y2="299.8"/>
				</g>
				<g>
					<line fill="none" stroke="#FFFFFF" stroke-linecap="round" stroke-linejoin="round" stroke-miterlimit="10" x1="653.4" y1="294.5" x2="660.3" y2="299.4"/>
					<line fill="none" stroke="#FFFFFF" stroke-linecap="round" stroke-linejoin="round" stroke-miterlimit="10" x1="655.7" y1="291.2" x2="662.6" y2="296.2"/>
					<line fill="none" stroke="#FFFFFF" stroke-linecap="round" stroke-linejoin="round" stroke-miterlimit="10" x1="658.2" y1="287.9" x2="664.9" y2="293.1"/>
					<line fill="none" stroke="#FFFFFF" stroke-linecap="round" stroke-linejoin="round" stroke-miterlimit="10" x1="660.7" y1="284.7" x2="667.3" y2="290.1"/>
					<line fill="none" x1="663.3" y1="281.6" x2="669.8" y2="287.1"/>
				</g>
				<g>
					<line fill="none" stroke="#FFFFFF" stroke-linecap="round" stroke-linejoin="round" stroke-miterlimit="10" x1="663.7" y1="281.2" x2="670.1" y2="286.7"/>
					<line fill="none" stroke="#FFFFFF" stroke-linecap="round" stroke-linejoin="round" stroke-miterlimit="10" x1="666.3" y1="278.1" x2="672.7" y2="283.8"/>
					<line fill="none" stroke="#FFFFFF" stroke-linecap="round" stroke-linejoin="round" stroke-miterlimit="10" x1="669.1" y1="275.1" x2="675.3" y2="280.9"/>
					<line fill="none" stroke="#FFFFFF" stroke-linecap="round" stroke-linejoin="round" stroke-miterlimit="10" x1="671.9" y1="272.2" x2="678" y2="278.1"/>
					<line fill="none" x1="674.8" y1="269.3" x2="680.7" y2="275.4"/>
				</g>
				<g>
					<line fill="none" stroke="#FFFFFF" stroke-linecap="round" stroke-linejoin="round" stroke-miterlimit="10" x1="675.1" y1="268.9" x2="681.1" y2="275"/>
					<line fill="none" stroke="#FFFFFF" stroke-linecap="round" stroke-linejoin="round" stroke-miterlimit="10" x1="678.1" y1="266.1" x2="683.9" y2="272.4"/>
					<line fill="none" stroke="#FFFFFF" stroke-linecap="round" stroke-linejoin="round" stroke-miterlimit="10" x1="681.1" y1="263.4" x2="686.7" y2="269.8"/>
					<line fill="none" stroke="#FFFFFF" stroke-linecap="round" stroke-linejoin="round" stroke-miterlimit="10" x1="684.2" y1="260.7" x2="689.7" y2="267.2"/>
					<line fill="none" x1="687.3" y1="258.1" x2="692.7" y2="264.7"/>
				</g>
				<g>
					<line fill="none" stroke="#FFFFFF" stroke-linecap="round" stroke-linejoin="round" stroke-miterlimit="10" x1="687.7" y1="257.8" x2="693" y2="264.4"/>
					<line fill="none" stroke="#FFFFFF" stroke-linecap="round" stroke-linejoin="round" stroke-miterlimit="10" x1="690.9" y1="255.3" x2="696.1" y2="262"/>
					<line fill="none" stroke="#FFFFFF" stroke-linecap="round" stroke-linejoin="round" stroke-miterlimit="10" x1="694.2" y1="252.8" x2="699.2" y2="259.7"/>
					<line fill="none" stroke="#FFFFFF" stroke-linecap="round" stroke-linejoin="round" stroke-miterlimit="10" x1="697.5" y1="250.5" x2="702.4" y2="257.5"/>
					<line fill="none" x1="700.9" y1="248.2" x2="705.6" y2="255.3"/>
				</g>
				<g>
					<line fill="none" stroke="#FFFFFF" stroke-linecap="round" stroke-linejoin="round" stroke-miterlimit="10" x1="701.3" y1="247.9" x2="706" y2="255"/>
					<line fill="none" stroke="#FFFFFF" stroke-linecap="round" stroke-linejoin="round" stroke-miterlimit="10" x1="704.7" y1="245.7" x2="709.2" y2="252.9"/>
					<line fill="none" stroke="#FFFFFF" stroke-linecap="round" stroke-linejoin="round" stroke-miterlimit="10" x1="708.2" y1="243.6" x2="712.5" y2="250.8"/>
					<line fill="none" stroke="#FFFFFF" stroke-linecap="round" stroke-linejoin="round" stroke-miterlimit="10" x1="711.7" y1="241.5" x2="715.9" y2="248.9"/>
					<line fill="none" x1="715.3" y1="239.5" x2="719.3" y2="247"/>
				</g>
				<g>
					<line fill="none" stroke="#FFFFFF" stroke-linecap="round" stroke-linejoin="round" stroke-miterlimit="10" x1="715.7" y1="239.3" x2="719.7" y2="246.8"/>
					<line fill="none" stroke="#FFFFFF" stroke-linecap="round" stroke-linejoin="round" stroke-miterlimit="10" x1="719.3" y1="237.4" x2="723.2" y2="245"/>
					<line fill="none" stroke="#FFFFFF" stroke-linecap="round" stroke-linejoin="round" stroke-miterlimit="10" x1="723" y1="235.6" x2="726.6" y2="243.3"/>
					<line fill="none" stroke="#FFFFFF" stroke-linecap="round" stroke-linejoin="round" stroke-miterlimit="10" x1="726.7" y1="233.9" x2="730.2" y2="241.7"/>
					<line fill="none" x1="730.4" y1="232.3" x2="733.7" y2="240.1"/>
				</g>
				<g>
					<line fill="none" stroke="#FFFFFF" stroke-linecap="round" stroke-linejoin="round" stroke-miterlimit="10" x1="730.9" y1="232.1" x2="734.2" y2="239.9"/>
					<line fill="none" stroke="#FFFFFF" stroke-linecap="round" stroke-linejoin="round" stroke-miterlimit="10" x1="734.7" y1="230.6" x2="737.8" y2="238.5"/>
					<line fill="none" stroke="#FFFFFF" stroke-linecap="round" stroke-linejoin="round" stroke-miterlimit="10" x1="738.5" y1="229.1" x2="741.4" y2="237.1"/>
					<line fill="none" stroke="#FFFFFF" stroke-linecap="round" stroke-linejoin="round" stroke-miterlimit="10" x1="742.3" y1="227.8" x2="745.1" y2="235.8"/>
					<line fill="none" x1="746.2" y1="226.5" x2="748.7" y2="234.6"/>
				</g>
				<g>
					<line fill="none" stroke="#FFFFFF" stroke-linecap="round" stroke-linejoin="round" stroke-miterlimit="10" x1="746.7" y1="226.3" x2="749.2" y2="234.4"/>
					<line fill="none" stroke="#FFFFFF" stroke-linecap="round" stroke-linejoin="round" stroke-miterlimit="10" x1="750.6" y1="225.2" x2="752.9" y2="233.4"/>
					<line fill="none" stroke="#FFFFFF" stroke-linecap="round" stroke-linejoin="round" stroke-miterlimit="10" x1="754.5" y1="224.1" x2="756.7" y2="232.3"/>
					<line fill="none" stroke="#FFFFFF" stroke-linecap="round" stroke-linejoin="round" stroke-miterlimit="10" x1="758.5" y1="223.1" x2="760.4" y2="231.4"/>
					<line fill="none" x1="762.5" y1="222.2" x2="764.2" y2="230.5"/>
				</g>
				<g>
					<line fill="none" stroke="#FFFFFF" stroke-linecap="round" stroke-linejoin="round" stroke-miterlimit="10" x1="763" y1="222.1" x2="764.7" y2="230.4"/>
					<line fill="none" stroke="#FFFFFF" stroke-linecap="round" stroke-linejoin="round" stroke-miterlimit="10" x1="767" y1="221.3" x2="768.5" y2="229.7"/>
					<line fill="none" stroke="#FFFFFF" stroke-linecap="round" stroke-linejoin="round" stroke-miterlimit="10" x1="771" y1="220.6" x2="772.3" y2="229"/>
					<line fill="none" stroke="#FFFFFF" stroke-linecap="round" stroke-linejoin="round" stroke-miterlimit="10" x1="775" y1="220" x2="776.2" y2="228.4"/>
					<line fill="none" x1="779" y1="219.5" x2="780" y2="228"/>
				</g>
				<g>
					<line fill="none" stroke="#FFFFFF" stroke-linecap="round" stroke-linejoin="round" stroke-miterlimit="10" x1="779.5" y1="219.4" x2="780.5" y2="227.9"/>
					<line fill="none" stroke="#FFFFFF" stroke-linecap="round" stroke-linejoin="round" stroke-miterlimit="10" x1="783.6" y1="219" x2="784.4" y2="227.5"/>
					<line fill="none" stroke="#FFFFFF" stroke-linecap="round" stroke-linejoin="round" stroke-miterlimit="10" x1="787.7" y1="218.7" x2="788.2" y2="227.2"/>
					<line fill="none" stroke="#FFFFFF" stroke-linecap="round" stroke-linejoin="round" stroke-miterlimit="10" x1="791.7" y1="218.5" x2="792.1" y2="226.9"/>
					<line fill="none" x1="795.8" y1="218.4" x2="796" y2="226.9"/>
				</g>
				<g>
					<line fill="none" stroke="#FFFFFF" stroke-linecap="round" stroke-linejoin="round" stroke-miterlimit="10" x1="796.3" y1="218.3" x2="796.5" y2="226.8"/>
					<line fill="none" stroke="#FFFFFF" stroke-linecap="round" stroke-linejoin="round" stroke-miterlimit="10" x1="800.4" y1="218.3" x2="800.4" y2="226.8"/>
					<line fill="none" stroke="#FFFFFF" stroke-linecap="round" stroke-linejoin="round" stroke-miterlimit="10" x1="804.5" y1="218.4" x2="804.2" y2="226.9"/>
					<line fill="none" stroke="#FFFFFF" stroke-linecap="round" stroke-linejoin="round" stroke-miterlimit="10" x1="808.5" y1="218.5" x2="808.1" y2="227"/>
					<line fill="none" x1="812.6" y1="218.7" x2="812" y2="227.2"/>
				</g>
				<g>
					<line fill="none" stroke="#FFFFFF" stroke-linecap="round" stroke-linejoin="round" stroke-miterlimit="10" x1="813.1" y1="218.8" x2="812.5" y2="227.3"/>
					<line fill="none" stroke="#FFFFFF" stroke-linecap="round" stroke-linejoin="round" stroke-miterlimit="10" x1="817.2" y1="219.1" x2="816.4" y2="227.5"/>
					<line fill="none" stroke="#FFFFFF" stroke-linecap="round" stroke-linejoin="round" stroke-miterlimit="10" x1="821.2" y1="219.5" x2="820.2" y2="228"/>
					<line fill="none" stroke="#FFFFFF" stroke-linecap="round" stroke-linejoin="round" stroke-miterlimit="10" x1="825.3" y1="220.1" x2="824.1" y2="228.5"/>
					<line fill="none" x1="829.3" y1="220.7" x2="827.9" y2="229.1"/>
				</g>
				<g>
					<line fill="none" stroke="#FFFFFF" stroke-linecap="round" stroke-linejoin="round" stroke-miterlimit="10" x1="829.8" y1="220.8" x2="828.4" y2="229.1"/>
					<line fill="none" stroke="#FFFFFF" stroke-linecap="round" stroke-linejoin="round" stroke-miterlimit="10" x1="833.8" y1="221.5" x2="832.2" y2="229.8"/>
					<line fill="none" stroke="#FFFFFF" stroke-linecap="round" stroke-linejoin="round" stroke-miterlimit="10" x1="837.8" y1="222.3" x2="836" y2="230.6"/>
					<line fill="none" stroke="#FFFFFF" stroke-linecap="round" stroke-linejoin="round" stroke-miterlimit="10" x1="841.8" y1="223.2" x2="839.8" y2="231.5"/>
					<line fill="none" x1="845.7" y1="224.2" x2="843.6" y2="232.4"/>
				</g>
				<g>
					<line fill="none" stroke="#FFFFFF" stroke-linecap="round" stroke-linejoin="round" stroke-miterlimit="10" x1="846.2" y1="224.3" x2="844" y2="232.5"/>
					<line fill="none" stroke="#FFFFFF" stroke-linecap="round" stroke-linejoin="round" stroke-miterlimit="10" x1="850.1" y1="225.4" x2="847.8" y2="233.6"/>
					<line fill="none" stroke="#FFFFFF" stroke-linecap="round" stroke-linejoin="round" stroke-miterlimit="10" x1="854" y1="226.6" x2="851.5" y2="234.7"/>
					<line fill="none" stroke="#FFFFFF" stroke-linecap="round" stroke-linejoin="round" stroke-miterlimit="10" x1="857.9" y1="227.9" x2="855.2" y2="235.9"/>
					<line fill="none" x1="861.8" y1="229.2" x2="858.8" y2="237.2"/>
				</g>
				<g>
					<line fill="none" stroke="#FFFFFF" stroke-linecap="round" stroke-linejoin="round" stroke-miterlimit="10" x1="862.2" y1="229.4" x2="859.3" y2="237.3"/>
					<line fill="none" stroke="#FFFFFF" stroke-linecap="round" stroke-linejoin="round" stroke-miterlimit="10" x1="866" y1="230.9" x2="862.9" y2="238.8"/>
					<line fill="none" stroke="#FFFFFF" stroke-linecap="round" stroke-linejoin="round" stroke-miterlimit="10" x1="869.8" y1="232.4" x2="866.5" y2="240.2"/>
					<line fill="none" stroke="#FFFFFF" stroke-linecap="round" stroke-linejoin="round" stroke-miterlimit="10" x1="873.5" y1="234" x2="870" y2="241.8"/>
					<line fill="none" x1="877.2" y1="235.7" x2="873.6" y2="243.4"/>
				</g>
				<g>
					<line fill="none" stroke="#FFFFFF" stroke-linecap="round" stroke-linejoin="round" stroke-miterlimit="10" x1="877.7" y1="235.9" x2="874" y2="243.6"/>
					<line fill="none" stroke="#FFFFFF" stroke-linecap="round" stroke-linejoin="round" stroke-miterlimit="10" x1="881.3" y1="237.8" x2="877.5" y2="245.4"/>
					<line fill="none" stroke="#FFFFFF" stroke-linecap="round" stroke-linejoin="round" stroke-miterlimit="10" x1="885" y1="239.6" x2="880.9" y2="247.1"/>
					<line fill="none" stroke="#FFFFFF" stroke-linecap="round" stroke-linejoin="round" stroke-miterlimit="10" x1="888.5" y1="241.6" x2="884.3" y2="249"/>
					<line fill="none" x1="892" y1="243.7" x2="887.7" y2="251"/>
				</g>
				<g>
					<line fill="none" stroke="#FFFFFF" stroke-linecap="round" stroke-linejoin="round" stroke-miterlimit="10" x1="892.5" y1="243.9" x2="888.1" y2="251.2"/>
					<line fill="none" stroke="#FFFFFF" stroke-linecap="round" stroke-linejoin="round" stroke-miterlimit="10" x1="895.9" y1="246.1" x2="891.4" y2="253.3"/>
					<line fill="none" stroke="#FFFFFF" stroke-linecap="round" stroke-linejoin="round" stroke-miterlimit="10" x1="899.4" y1="248.3" x2="894.6" y2="255.4"/>
					<line fill="none" stroke="#FFFFFF" stroke-linecap="round" stroke-linejoin="round" stroke-miterlimit="10" x1="902.7" y1="250.6" x2="897.8" y2="257.6"/>
					<line fill="none" x1="906" y1="253" x2="901" y2="259.8"/>
				</g>
				<g>
					<line fill="none" stroke="#FFFFFF" stroke-linecap="round" stroke-linejoin="round" stroke-miterlimit="10" x1="906.4" y1="253.3" x2="901.4" y2="260.1"/>
					<line fill="none" stroke="#FFFFFF" stroke-linecap="round" stroke-linejoin="round" stroke-miterlimit="10" x1="909.7" y1="255.8" x2="904.5" y2="262.5"/>
					<line fill="none" stroke="#FFFFFF" stroke-linecap="round" stroke-linejoin="round" stroke-miterlimit="10" x1="912.9" y1="258.3" x2="907.5" y2="264.9"/>
					<line fill="none" stroke="#FFFFFF" stroke-linecap="round" stroke-linejoin="round" stroke-miterlimit="10" x1="916" y1="260.9" x2="910.5" y2="267.4"/>
					<line fill="none" x1="919.1" y1="263.6" x2="913.4" y2="269.9"/>
				</g>
				<g>
					<line fill="none" stroke="#FFFFFF" stroke-linecap="round" stroke-linejoin="round" stroke-miterlimit="10" x1="919.5" y1="263.9" x2="913.8" y2="270.2"/>
					<line fill="none" stroke="#FFFFFF" stroke-linecap="round" stroke-linejoin="round" stroke-miterlimit="10" x1="922.5" y1="266.7" x2="916.7" y2="272.9"/>
					<line fill="none" stroke="#FFFFFF" stroke-linecap="round" stroke-linejoin="round" stroke-miterlimit="10" x1="925.4" y1="269.5" x2="919.5" y2="275.5"/>
					<line fill="none" stroke="#FFFFFF" stroke-linecap="round" stroke-linejoin="round" stroke-miterlimit="10" x1="928.3" y1="272.4" x2="922.2" y2="278.3"/>
					<line fill="none" x1="931.1" y1="275.3" x2="924.9" y2="281.1"/>
				</g>
				<g>
					<line fill="none" stroke="#FFFFFF" stroke-linecap="round" stroke-linejoin="round" stroke-miterlimit="10" x1="931.5" y1="275.7" x2="925.2" y2="281.5"/>
					<line fill="none" stroke="#FFFFFF" stroke-linecap="round" stroke-linejoin="round" stroke-miterlimit="10" x1="934.2" y1="278.7" x2="927.8" y2="284.3"/>
					<line fill="none" stroke="#FFFFFF" stroke-linecap="round" stroke-linejoin="round" stroke-miterlimit="10" x1="936.8" y1="281.8" x2="930.4" y2="287.3"/>
					<line fill="none" stroke="#FFFFFF" stroke-linecap="round" stroke-linejoin="round" stroke-miterlimit="10" x1="939.4" y1="284.9" x2="932.8" y2="290.3"/>
					<line fill="none" x1="942" y1="288.1" x2="935.2" y2="293.3"/>
				</g>
				<g>
					<line fill="none" stroke="#FFFFFF" stroke-linecap="round" stroke-linejoin="round" stroke-miterlimit="10" x1="942.3" y1="288.5" x2="935.5" y2="293.7"/>
					<line fill="none" stroke="#FFFFFF" stroke-linecap="round" stroke-linejoin="round" stroke-miterlimit="10" x1="944.7" y1="291.8" x2="937.9" y2="296.8"/>
					<line fill="none" stroke="#FFFFFF" stroke-linecap="round" stroke-linejoin="round" stroke-miterlimit="10" x1="947.1" y1="295.1" x2="940.1" y2="300"/>
					<line fill="none" stroke="#FFFFFF" stroke-linecap="round" stroke-linejoin="round" stroke-miterlimit="10" x1="949.4" y1="298.5" x2="942.3" y2="303.2"/>
					<line fill="none" x1="951.6" y1="301.9" x2="944.4" y2="306.4"/>
				</g>
				<g>
					<line fill="none" stroke="#FFFFFF" stroke-linecap="round" stroke-linejoin="round" stroke-miterlimit="10" x1="951.9" y1="302.3" x2="944.7" y2="306.8"/>
					<line fill="none" stroke="#FFFFFF" stroke-linecap="round" stroke-linejoin="round" stroke-miterlimit="10" x1="954" y1="305.8" x2="946.7" y2="310.1"/>
					<line fill="none" stroke="#FFFFFF" stroke-linecap="round" stroke-linejoin="round" stroke-miterlimit="10" x1="956" y1="309.3" x2="948.6" y2="313.5"/>
					<line fill="none" stroke="#FFFFFF" stroke-linecap="round" stroke-linejoin="round" stroke-miterlimit="10" x1="958" y1="312.9" x2="950.5" y2="316.9"/>
					<line fill="none" x1="959.9" y1="316.5" x2="952.3" y2="320.3"/>
				</g>
				<g>
					<line fill="none" stroke="#FFFFFF" stroke-linecap="round" stroke-linejoin="round" stroke-miterlimit="10" x1="960.1" y1="317" x2="952.5" y2="320.8"/>
					<line fill="none" stroke="#FFFFFF" stroke-linecap="round" stroke-linejoin="round" stroke-miterlimit="10" x1="961.9" y1="320.6" x2="954.3" y2="324.3"/>
					<line fill="none" stroke="#FFFFFF" stroke-linecap="round" stroke-linejoin="round" stroke-miterlimit="10" x1="963.6" y1="324.3" x2="955.9" y2="327.8"/>
					<line fill="none" stroke="#FFFFFF" stroke-linecap="round" stroke-linejoin="round" stroke-miterlimit="10" x1="965.3" y1="328" x2="957.4" y2="331.3"/>
					<line fill="none" x1="966.8" y1="331.8" x2="958.9" y2="334.9"/>
				</g>
				<g>
					<line fill="none" stroke="#FFFFFF" stroke-linecap="round" stroke-linejoin="round" stroke-miterlimit="10" x1="967" y1="332.3" x2="959.1" y2="335.4"/>
					<line fill="none" stroke="#FFFFFF" stroke-linecap="round" stroke-linejoin="round" stroke-miterlimit="10" x1="968.5" y1="336.1" x2="960.5" y2="339"/>
					<line fill="none" stroke="#FFFFFF" stroke-linecap="round" stroke-linejoin="round" stroke-miterlimit="10" x1="969.8" y1="340" x2="961.7" y2="342.7"/>
					<line fill="none" stroke="#FFFFFF" stroke-linecap="round" stroke-linejoin="round" stroke-miterlimit="10" x1="971.1" y1="343.8" x2="963" y2="346.4"/>
					<line fill="none" x1="972.2" y1="347.7" x2="964" y2="350.1"/>
				</g>
				<g>
					<line fill="none" stroke="#FFFFFF" stroke-linecap="round" stroke-linejoin="round" stroke-miterlimit="10" x1="972.3" y1="348.2" x2="964.2" y2="350.6"/>
					<line fill="none" stroke="#FFFFFF" stroke-linecap="round" stroke-linejoin="round" stroke-miterlimit="10" x1="973.4" y1="352.1" x2="965.2" y2="354.3"/>
					<line fill="none" stroke="#FFFFFF" stroke-linecap="round" stroke-linejoin="round" stroke-miterlimit="10" x1="974.4" y1="356.1" x2="966.1" y2="358.1"/>
					<line fill="none" stroke="#FFFFFF" stroke-linecap="round" stroke-linejoin="round" stroke-miterlimit="10" x1="975.3" y1="360.1" x2="967" y2="361.8"/>
					<line fill="none" x1="976.1" y1="364.1" x2="967.7" y2="365.7"/>
				</g>
				<g>
					<line fill="none" stroke="#FFFFFF" stroke-linecap="round" stroke-linejoin="round" stroke-miterlimit="10" x1="976.2" y1="364.6" x2="967.8" y2="366.1"/>
					<line fill="none" stroke="#FFFFFF" stroke-linecap="round" stroke-linejoin="round" stroke-miterlimit="10" x1="976.9" y1="368.6" x2="968.5" y2="370"/>
					<line fill="none" stroke="#FFFFFF" stroke-linecap="round" stroke-linejoin="round" stroke-miterlimit="10" x1="977.5" y1="372.6" x2="969.1" y2="373.8"/>
					<line fill="none" stroke="#FFFFFF" stroke-linecap="round" stroke-linejoin="round" stroke-miterlimit="10" x1="978" y1="376.7" x2="969.6" y2="377.6"/>
					<line fill="none" x1="978.4" y1="380.7" x2="970" y2="381.5"/>
				</g>
				<g>
					<line fill="none" stroke="#FFFFFF" stroke-linecap="round" stroke-linejoin="round" stroke-miterlimit="10" x1="978.5" y1="381.2" x2="970" y2="382"/>
					<line fill="none" stroke="#FFFFFF" stroke-linecap="round" stroke-linejoin="round" stroke-miterlimit="10" x1="978.8" y1="385.3" x2="970.3" y2="385.9"/>
					<line fill="none" stroke="#FFFFFF" stroke-linecap="round" stroke-linejoin="round" stroke-miterlimit="10" x1="979" y1="389.4" x2="970.6" y2="389.7"/>
					<line fill="none" stroke="#FFFFFF" stroke-linecap="round" stroke-linejoin="round" stroke-miterlimit="10" x1="979.1" y1="393.4" x2="970.7" y2="393.6"/>
					<line fill="none" x1="979.3" y1="397.5" x2="970.8" y2="397.5"/>
				</g>
			</g>
		</g>
	</g>
	<circle fill="none" stroke="#FFFFFF" stroke-miterlimit="10" cx="800" cy="397.5" r="185.3"/>
	<line fill="none" stroke="#FFFFFF" stroke-miterlimit="10" x1="607.3" y1="590.2" x2="992.7" y2="204.8"/>
	<line fill="none" stroke="#FFFFFF" stroke-miterlimit="10" x1="527.5" y1="397.5" x2="1072.5" y2="397.5"/>
	<g>
		<text transform="matrix(-0.3827 -0.9239 0.9239 -0.3827 614.8836 484.4639)"><tspan x="0" y="0" class="svg-text">45</tspan><tspan x="15.2" y="-7" class="svg-text sgv-small-text">o</tspan></text>
		<text transform="matrix(0.3827 0.9239 -0.9239 0.3827 985.1164 310.5354)"><tspan x="0" y="0" class="svg-text">45</tspan><tspan x="15.2" y="-7" class="svg-text sgv-small-text">o</tspan></text>
	</g>
</g>
</svg>
