<svg version="1.1" xmlns="http://www.w3.org/2000/svg" xmlns:xlink="http://www.w3.org/1999/xlink" viewBox="0 0 24 24">
	<g>
		<path class="st0" d="M12,0C5.4,0,0,5.4,0,12c0,6.6,5.4,12,12,12c6.6,0,12-5.4,12-12C24,5.4,18.6,0,12,0z M12,23C5.9,23,1,18.1,1,12 S5.9,1,12,1s11,4.9,11,11S18.1,23,12,23z"/>
		<path class="st0" d="M16.2,9.1c-0.5,0-0.9,0.1-1.2,0.3C14.9,9.1,14.7,9,14.5,9h-3c-0.1,0-0.3,0.1-0.4,0.2C11,9.3,11,9.4,11,9.5 c0,0.4,0,5.2,0,7c0,0.1,0.1,0.3,0.1,0.4c0.1,0.1,0.2,0.1,0.4,0.1h3c0.3,0,0.5-0.2,0.5-0.5c0,0.3,0.2,0.5,0.5,0.5h3 c0.3,0,0.5-0.2,0.5-0.5v-3.6C19,9.7,17.5,9.1,16.2,9.1z M18,16h-2v-3c0-0.6-0.4-1-1-1s-1,0.4-1,1v3h-2c0-1.3,0-4.7,0-6h2v0.3 c0,0.2,0.1,0.4,0.4,0.5s0.4,0,0.6-0.2c0,0,0.3-0.5,1.3-0.5c0.5,0,1.8,0,1.8,2.8V16z"/>
		<path class="st0" d="M9.5,9h-2C7.2,9,7,9.2,7,9.5v7C7,16.8,7.2,17,7.5,17h2c0.3,0,0.5-0.2,0.5-0.5v-7C10,9.2,9.8,9,9.5,9z M9,16H8 v-6h1V16z"/>
		<path class="st0" d="M8.5,5C7.7,5,7,5.7,7,6.5S7.7,8,8.5,8S10,7.3,10,6.5S9.3,5,8.5,5z M8.5,7C8.2,7,8,6.8,8,6.5S8.2,6,8.5,6 S9,6.2,9,6.5S8.8,7,8.5,7z"/>
	</g>
</svg>
