<svg version="1.1" xmlns="http://www.w3.org/2000/svg" xmlns:xlink="http://www.w3.org/1999/xlink" viewBox="0 0 24 24">
	<g>
		<path d="M8.6,23.4c-0.1,0-0.2,0-0.3,0C3.3,21.8,0,17.2,0,12C0,5.4,5.4,0,12,0c6.6,0,12,5.4,12,12 c0,5.2-3.3,9.8-8.2,11.4c-0.6,0.1-0.9,0-1.1-0.2c-0.2-0.2-0.4-0.5-0.4-0.8v-3.2c0-1.1-0.4-1.6-0.6-1.7c-0.2-0.1-0.2-0.3-0.2-0.5 c0.1-0.2,0.2-0.3,0.4-0.3c2.4-0.3,4.8-1.1,4.8-5.2c0-1.1-0.4-2-1.1-2.7c-0.1-0.1-0.2-0.3-0.1-0.5c0.1-0.2,0.4-1.1,0-2.4 c-0.4,0-1.2,0.2-2.5,1.1C15,6.9,14.9,7,14.7,6.9C13.9,6.7,13,6.6,12,6.6c-0.9,0-1.9,0.1-2.7,0.4C9.1,7,9,6.9,8.8,6.9 C7.5,6,6.7,5.8,6.3,5.7C5.9,7,6.2,7.9,6.3,8.1c0.1,0.2,0,0.4-0.1,0.5c-0.7,0.8-1.1,1.7-1.1,2.7c0,4.1,2.4,4.9,4.8,5.2 c0.2,0,0.4,0.2,0.4,0.3s0,0.4-0.1,0.5c-0.3,0.2-0.5,0.7-0.6,1.2c0,0.2-0.1,0.3-0.3,0.4c-0.6,0.3-2.7,1-4-1.2c0,0-0.1-0.2-0.3-0.4 c0.2,0.3,0.4,0.7,0.6,1.1c0,0.1,0.6,1.8,3.3,1.2c0.1,0,0.3,0,0.4,0.1c0.1,0.1,0.2,0.2,0.2,0.4c0,0.7,0,1.3,0,1.7l0,0.3 c0,0.3-0.1,0.6-0.4,0.8C9.1,23.3,8.9,23.4,8.6,23.4z M12,1C5.9,1,1,5.9,1,12c0,4.7,3,8.9,7.5,10.4c0.1,0,0.1,0,0.1,0l0-0.3 c0-0.3,0-0.7,0-1.1c-3.1,0.4-3.8-1.9-3.8-2c-0.4-1.1-1-1.4-1-1.4c-0.3-0.2-0.9-0.6-0.7-1.1C3.2,16,3.8,16,4.1,16 c1.4,0.1,2.2,1.4,2.2,1.4C7,18.6,8,18.5,8.7,18.3C8.8,18,8.9,17.7,9,17.5c-2.3-0.4-4.8-1.7-4.8-6.1c0-1.2,0.4-2.3,1.1-3.2 C5.1,7.6,4.9,6.5,5.5,5.1c0.1-0.1,0.2-0.2,0.3-0.3C6,4.7,7.1,4.5,9.2,5.9C10.1,5.7,11,5.6,12,5.6c1,0,1.9,0.1,2.8,0.3 c2.2-1.4,3.2-1.2,3.4-1.1c0.1,0,0.3,0.2,0.3,0.3c0.6,1.4,0.4,2.5,0.2,3.1c0.7,0.9,1.1,2,1.1,3.2c0,4.4-2.6,5.6-4.8,6 c0.2,0.4,0.4,1,0.4,1.7v3.2c0,0,0,0.1,0.2,0C20,20.9,23,16.7,23,12C23,5.9,18.1,1,12,1z"/>
	</g>
</svg>
