<svg version="1.1" xmlns="http://www.w3.org/2000/svg" xmlns:xlink="http://www.w3.org/1999/xlink" viewBox="0 0 24 24">
	<g>
		<path d="M18,6H6C4.9,6,4,6.9,4,8v8c0,1.1,0.9,2,2,2h12c1.1,0,2-0.9,2-2V8C20,6.9,19.1,6,18,6z M19,16c0,0.6-0.4,1-1,1 H6c-0.6,0-1-0.4-1-1V8c0-0.6,0.4-1,1-1h12c0.6,0,1,0.4,1,1V16z"/>
		<path d="M17.9,8.2c-0.2-0.2-0.5-0.2-0.7-0.1L12,12.4L6.8,8.1C6.6,7.9,6.3,8,6.1,8.2C5.9,8.4,6,8.7,6.2,8.9l3.6,3 l-3.6,2.2c-0.2,0.1-0.3,0.5-0.2,0.7C6.2,14.9,6.3,15,6.5,15c0.1,0,0.2,0,0.3-0.1l3.9-2.4l1.1,0.9c0.1,0.1,0.2,0.1,0.3,0.1 s0.2,0,0.3-0.1l1.1-0.9l3.9,2.4c0.1,0.1,0.2,0.1,0.3,0.1c0.2,0,0.3-0.1,0.4-0.2c0.1-0.2,0.1-0.5-0.2-0.7l-3.6-2.2l3.6-3 C18,8.7,18.1,8.4,17.9,8.2z"/>
		<path d="M12,0C5.4,0,0,5.4,0,12c0,6.6,5.4,12,12,12c6.6,0,12-5.4,12-12C24,5.4,18.6,0,12,0z M12,23C5.9,23,1,18.1,1,12 S5.9,1,12,1s11,4.9,11,11S18.1,23,12,23z"/>
	</g>
</svg>
