<svg version="1.1" xmlns="http://www.w3.org/2000/svg" xmlns:xlink="http://www.w3.org/1999/xlink" viewBox="0 0 24 24">
	<g>
		<path d="M12,24C5.4,24,0,18.6,0,12C0,5.4,5.4,0,12,0c6.6,0,12,5.4,12,12C24,18.6,18.6,24,12,24z M12,1 C5.9,1,1,5.9,1,12s4.9,11,11,11s11-4.9,11-11S18.1,1,12,1z"/>
		<path d="M13.5,19h-3c-0.3,0-0.5-0.2-0.5-0.5V12H8.5C8.2,12,8,11.8,8,11.5v-2C8,9.2,8.2,9,8.5,9H10V8.3 C10,6.2,11.1,5,13.1,5l2.4,0C15.8,5,16,5.2,16,5.5v2.3c0,0.3-0.2,0.5-0.5,0.5h-1.4C14,8.4,14,8.4,14,8.5V9h1.8 c0.1,0,0.3,0.1,0.4,0.2c0.1,0.1,0.1,0.3,0.1,0.4l-0.2,2c0,0.3-0.2,0.4-0.5,0.4H14v6.5C14,18.8,13.8,19,13.5,19z M11,18h2v-6.5 c0-0.3,0.2-0.5,0.5-0.5h1.7l0.1-1h-1.8C13.2,10,13,9.8,13,9.5v-1c0-0.8,0.6-1.1,1.1-1.1H15V6l-1.9,0C12.6,6,11,6,11,8.3v1.2 c0,0.3-0.2,0.5-0.5,0.5H9v1h1.5c0.3,0,0.5,0.2,0.5,0.5V18z"/>
	</g>
</svg>
