<svg version="1.1" xmlns="http://www.w3.org/2000/svg" xmlns:xlink="http://www.w3.org/1999/xlink" viewBox="0 0 24 24">
	<g>
		<path d="M23.5,24h-23C0.2,24,0,23.8,0,23.5c0-0.1,0-2.2,1.1-4.3c0.7-1.5,3.2-2.4,6.7-3.7c0.4-0.1,0.8-0.3,1.2-0.5 v-2.4c-0.4-0.4-1.4-1.3-1.5-2.9C7.3,9.6,7.1,9.2,7,8.8C6.8,8.1,6.9,7.2,7.4,6.7c0,0,0-0.1-0.1-0.2C7,5.5,6.4,3.4,7.3,2.2 c0.3-0.4,0.8-0.7,1.4-0.7C9.3,0.3,11.3,0,12.9,0c1.9,0,4.2,0.7,4.6,2.3c0.3,1.4-0.4,3.2-0.8,4.2c0,0.1-0.1,0.2-0.1,0.2 c0.5,0.5,0.6,1.3,0.4,2c-0.1,0.4-0.3,0.8-0.5,1c-0.1,1.6-1,2.6-1.5,2.9v2.4c0.4,0.2,0.8,0.3,1.2,0.5c3.5,1.3,6,2.2,6.7,3.7 c1,2.1,1.1,4.2,1.1,4.3C24,23.8,23.8,24,23.5,24z M1,23H23c-0.1-0.7-0.3-2-0.9-3.3c-0.6-1.1-3.2-2.1-6.2-3.2 c-0.5-0.2-1-0.4-1.6-0.6c-0.2-0.1-0.3-0.3-0.3-0.5v-3c0-0.2,0.1-0.3,0.2-0.4c0,0,1.3-0.9,1.3-2.6c0-0.2,0.2-0.4,0.4-0.5 c0.1-0.1,0.3-0.6,0.2-1.1c0-0.3-0.1-0.4-0.3-0.5c-0.2-0.1-0.3-0.3-0.3-0.4c0-0.2,0.1-0.4,0.2-0.8c0.3-0.9,1-2.5,0.8-3.6 C16.3,1.7,14.9,1,12.9,1C11,1,9.6,1.5,9.5,2.1C9.4,2.3,9.2,2.4,9,2.4c-0.4,0-0.7,0.1-0.9,0.4c-0.6,0.8,0,2.7,0.3,3.5 c0.1,0.4,0.2,0.5,0.2,0.7c0,0.2-0.1,0.4-0.3,0.4C8.1,7.5,8,7.6,7.9,7.9C7.9,8.3,8,8.8,8.1,9C8.3,9,8.5,9.2,8.5,9.4 c0,1.7,1.3,2.6,1.3,2.6c0.1,0.1,0.2,0.2,0.2,0.4v3c0,0.2-0.1,0.4-0.3,0.5c-0.5,0.2-1.1,0.4-1.6,0.6c-3,1.1-5.6,2.1-6.2,3.2 C1.3,21,1.1,22.3,1,23z"/>
	</g>
</svg>
