<svg version="1.1" xmlns="http://www.w3.org/2000/svg" xmlns:xlink="http://www.w3.org/1999/xlink" viewBox="0 0 12 12">
	<path d="M10.9,3.1l-3-3C7.9,0,7.8,0,7.8,0H1.3C1.1,0,1,0.1,1,0.3v11.5C1,11.9,1.1,12,1.3,12h9.5c0.1,0,0.3-0.1,0.3-0.3V3.3 C11,3.2,11,3.1,10.9,3.1z M4.5,3.6c0.6,0,1,0.4,1,1c0,0.6-0.4,1-1,1s-1-0.4-1-1C3.5,4,3.9,3.6,4.5,3.6z M8.8,10.1h-5 c-0.2,0-0.3-0.2-0.2-0.4l1.3-2.5C4.9,7.1,5.1,7,5.2,7.2l0.8,0.8l1.3-2.5c0.1-0.2,0.4-0.2,0.5,0L9,9.8C9,9.9,8.9,10.1,8.8,10.1z M7.5,3.5v-3l3,3H7.5z"/>
</svg>
