<svg version="1.1" xmlns="http://www.w3.org/2000/svg" xmlns:xlink="http://www.w3.org/1999/xlink" viewBox="0 0 12 12">
	<g>
		<path d="M10.3,2.3c0.2,0.2,0.4,0.6,0.5,0.9c0.1,0.3,0,0.6-0.1,0.8L8.7,6.1c-0.2,0.2-0.5,0.2-0.8,0 c-0.2-0.2-0.5-0.2-0.7,0C7,6.3,7,6.7,7.2,6.8c0.6,0.6,1.6,0.6,2.2,0l1.9-2.1c0.4-0.4,0.5-1,0.4-1.7c-0.1-0.6-0.4-1.1-0.8-1.5 l-0.9-0.9C9.7,0.3,9.1,0.1,8.5,0C7.8-0.1,7.3,0.1,6.9,0.5L4.9,2.6C4.3,3.3,4.4,4.3,5.1,4.8C5.3,5,5.6,5,5.8,4.8 C6,4.6,6,4.3,5.8,4.1C5.5,3.9,5.5,3.5,5.7,3.3l1.9-2.1C7.8,1.1,8.1,1,8.4,1c0.4,0,0.7,0.2,1,0.4L10.3,2.3z"/>
		<path d="M1.7,9.7C1.5,9.5,1.3,9.1,1.2,8.8C1.2,8.4,1.2,8.2,1.4,8l1.9-2.1c0.2-0.2,0.5-0.2,0.8,0 c0.2,0.2,0.5,0.2,0.7,0C5,5.7,5,5.3,4.8,5.2c-0.6-0.6-1.6-0.6-2.2,0L0.6,7.3C0.2,7.7,0.1,8.3,0.2,9c0.1,0.6,0.4,1.1,0.8,1.5 l0.9,0.9c0.4,0.4,1,0.6,1.5,0.7c0.7,0.1,1.3-0.1,1.6-0.5l1.9-2.1c0.6-0.7,0.5-1.7-0.1-2.2C6.7,7,6.4,7,6.2,7.2C6,7.4,6,7.7,6.2,7.9 c0.3,0.2,0.3,0.6,0.1,0.8l-1.9,2.1C4.2,10.9,3.9,11,3.6,11c-0.4,0-0.7-0.2-1-0.4L1.7,9.7z"/>
		<path d="M8.3,3.6c-0.2-0.2-0.5-0.2-0.7,0L3.7,7.7c-0.2,0.2-0.2,0.5,0,0.7c0.2,0.2,0.5,0.2,0.7,0l3.8-4.1 C8.5,4.1,8.5,3.8,8.3,3.6z"/>
	</g>
</svg>
