<svg version="1.1" xmlns="http://www.w3.org/2000/svg" xmlns:xlink="http://www.w3.org/1999/xlink" viewBox="0 0 12 12">
	<g>
		<path d="M3.5,2.9h8c0.3,0,0.5-0.2,0.5-0.5s-0.2-0.5-0.5-0.5h-8C3.2,1.9,3,2.1,3,2.4S3.2,2.9,3.5,2.9z"/>
		<path d="M11.4,5.9h-8C3.2,5.9,3,6.1,3,6.4s0.2,0.5,0.5,0.5h8c0.3,0,0.5-0.2,0.5-0.5S11.7,5.9,11.4,5.9z"/>
		<path d="M11.4,9.9h-8C3.2,9.9,3,10.1,3,10.4s0.2,0.5,0.5,0.5h8c0.3,0,0.5-0.2,0.5-0.5S11.7,9.9,11.4,9.9z"/>
		<path d="M0.7,2.2l0.4-0.3v1.2c0,0.2,0.2,0.4,0.4,0.4s0.4-0.2,0.4-0.4v-2c0-0.3-0.4-0.5-0.6-0.3l-1,0.7 C0.1,1.7,0,1.9,0.2,2.1C0.3,2.3,0.5,2.3,0.7,2.2z"/>
		<path d="M1.5,6.7H1.2c0.4-0.4,0.6-0.6,0.6-1.1c0-0.5-0.4-0.9-0.9-0.9c-0.5,0-0.9,0.4-0.9,0.9C0.1,5.8,0.2,6,0.5,6 c0.2,0,0.4-0.2,0.4-0.4c0-0.1,0-0.1,0.1-0.1c0.1,0,0.1,0,0.1,0.1c0,0.2,0,0.2-0.2,0.4C0.7,6.2,0.4,6.5,0.1,6.9 C0,7.1,0.1,7.5,0.4,7.5h1c0.2,0,0.4-0.2,0.4-0.4C1.8,6.9,1.7,6.7,1.5,6.7z"/>
		<path d="M1.8,9.3c0.2-0.2,0-0.6-0.3-0.6h-1c-0.2,0-0.4,0.2-0.4,0.4c0,0.2,0.2,0.4,0.4,0.4h0.3L0.6,9.7 c-0.2,0.2,0,0.6,0.3,0.6c0.1,0,0.1,0,0.1,0c0,0.1,0,0.2,0,0.2c0,0-0.5,0-0.6,0c-0.2,0-0.4,0.2-0.4,0.4c0,0.2,0.2,0.4,0.4,0.4h0.5 c0.5,0,0.9-0.3,0.9-0.9c0-0.3-0.1-0.5-0.3-0.7L1.8,9.3z"/>
	</g>
</svg>
