<svg version="1.1" xmlns="http://www.w3.org/2000/svg" xmlns:xlink="http://www.w3.org/1999/xlink" viewBox="0 0 12 12">
	<g>
		<circle cx="1.3" cy="2" r="1.3"/>
		<path d="M4.3,2.7h7.1c0.3,0,0.5-0.2,0.5-0.5c0-0.3-0.2-0.5-0.5-0.5H4.3c-0.3,0-0.5,0.2-0.5,0.5 C3.8,2.5,4.1,2.7,4.3,2.7z"/>
		<circle cx="1.3" cy="6" r="1.3"/>
		<path d="M11.4,5.7H4.3c-0.3,0-0.5,0.2-0.5,0.5c0,0.3,0.2,0.5,0.5,0.5h7.1c0.3,0,0.5-0.2,0.5-0.5 C11.9,5.9,11.7,5.7,11.4,5.7z"/>
		<circle cx="1.3" cy="10" r="1.3"/>
		<path d="M11.4,9.7H4.3c-0.3,0-0.5,0.2-0.5,0.5c0,0.3,0.2,0.5,0.5,0.5h7.1c0.3,0,0.5-0.2,0.5-0.5 C11.9,9.9,11.7,9.7,11.4,9.7z"/>
	</g>
</svg>
