<svg version="1.1" xmlns="http://www.w3.org/2000/svg" xmlns:xlink="http://www.w3.org/1999/xlink" viewBox="0 0 12 12">
	<g>
		<g>
			<path d="M3,2.8c-0.1,0-0.3,0-0.4-0.1l-1-1c-0.2-0.2-0.2-0.5,0-0.7c0.2-0.2,0.5-0.2,0.7,0l1,1 c0.2,0.2,0.2,0.5,0,0.7C3.2,2.7,3.1,2.8,3,2.8z"/>
		</g>
		<g>
			<path d="M4.5,2.3C4.2,2.3,4,2,4,1.8V0.5C4,0.2,4.2,0,4.5,0C4.8,0,5,0.2,5,0.5v1.2C5,2,4.8,2.3,4.5,2.3z"/>
		</g>
		<g>
			<pat d="M2.5,4.5H1.2C0.9,4.5,0.7,4.3,0.7,4c0-0.3,0.2-0.5,0.5-0.5h1.2C2.7,3.5,3,3.7,3,4C3,4.3,2.7,4.5,2.5,4.5z" />
		</g>
		<g>
			<path d="M2.8,12c-0.6,0-1.2-0.2-1.6-0.7l-0.5-0.5c-0.9-0.9-0.9-2.3,0-3.2l1.7-1.7c0.2-0.2,0.5-0.2,0.7,0 c0.2,0.2,0.2,0.5,0,0.7L1.4,8.3c-0.5,0.5-0.5,1.3,0,1.8l0.5,0.5c0.5,0.5,1.3,0.5,1.8,0l1.7-1.7c0.2-0.2,0.5-0.2,0.7,0 c0.2,0.2,0.2,0.5,0,0.7l-1.7,1.7C3.9,11.8,3.4,12,2.8,12z"/>
		</g>
		<g>
			<path d="M9.7,9H7.4C7.2,9,6.9,8.8,6.9,8.5C6.9,8.2,7.2,8,7.4,8h2.2C10.4,8,11,7.4,11,6.8v-1c0-0.7-0.6-1.3-1.3-1.3 H7.4C7.2,4.5,6.9,4.3,6.9,4c0-0.3,0.2-0.5,0.5-0.5h2.2c1.3,0,2.3,1,2.3,2.3v1C12,8,11,9,9.7,9z"/>
		</g>
	</g>
</svg>
