<svg version="1.1" xmlns="http://www.w3.org/2000/svg" xmlns:xlink="http://www.w3.org/1999/xlink" viewBox="0 0 12 12">
	<g>
		<path d="M11.5,11h-11C0.2,11,0,11.2,0,11.5C0,11.8,0.2,12,0.5,12h11c0.3,0,0.5-0.2,0.5-0.5C12,11.2,11.8,11,11.5,11z "/>
		<path d="M0.5,1h1v4.8c0,2.3,1.9,4.3,4.3,4.3C8.1,10,10,8.1,10,5.8V1h1c0.3,0,0.5-0.2,0.5-0.5C11.5,0.2,11.3,0,11,0H8 C7.7,0,7.5,0.2,7.5,0.5C7.5,0.8,7.7,1,8,1h1v4.8C9,7.5,7.5,9,5.8,9S2.5,7.5,2.5,5.8V1h1C3.8,1,4,0.8,4,0.5C4,0.2,3.8,0,3.5,0h-3 C0.2,0,0,0.2,0,0.5C0,0.8,0.2,1,0.5,1z"/>
	</g>
</svg>
