<svg version="1.1" xmlns="http://www.w3.org/2000/svg" xmlns:xlink="http://www.w3.org/1999/xlink" viewBox="0 0 42 42">
	<g>
		<path fill="none" stroke="#61C3A5" stroke-linecap="round" stroke-linejoin="round" stroke-miterlimit="10" d="M4.1,25.5v4.5c0,1.5,0.3,2.7,1.8,2.7v8.9h5.3v-8.9c1.5,0,1.8-1.2,1.8-2.7v-4.5H4.1z"/>
		<circle fill="none" stroke="#61C3A5" stroke-linecap="round" stroke-linejoin="round" stroke-miterlimit="10" cx="8.5" cy="19.2" r="2.7"/>
		<path fill="none" stroke="#61C3A5" stroke-linecap="round" stroke-linejoin="round" stroke-miterlimit="10" d="M29,25.5v4.5c0,1.5,0.3,2.7,1.8,2.7v8.9h5.3v-8.9c1.5,0,1.8-1.2,1.8-2.7v-4.5H29z"/>
		<circle fill="none" stroke="#61C3A5" stroke-linecap="round" stroke-linejoin="round" stroke-miterlimit="10" cx="33.5" cy="19.2" r="2.7"/>
		<polygon fill="none" stroke="#61C3A5" stroke-linecap="round" stroke-linejoin="round" stroke-miterlimit="10" points="11.2,11.2 16.5,11.2 16.5,15.7 21,11.2 30.8,11.2 30.8,0.5 11.2,0.5"/>
		<line fill="none" stroke="#61C3A5" stroke-linecap="round" stroke-linejoin="round" stroke-miterlimit="10" x1="14.8" y1="7.7" x2="23.7" y2="7.7"/>
		<line fill="none" stroke="#61C3A5" stroke-linecap="round" stroke-linejoin="round" stroke-miterlimit="10" x1="14.8" y1="4.1" x2="27.2" y2="4.1"/>
	</g>
</svg>
