<svg version="1.1" xmlns="http://www.w3.org/2000/svg" xmlns:xlink="http://www.w3.org/1999/xlink" viewBox="0 0 24 24">
	<g>
		<path d="M18.4,6.9c0,0-1.1,0.1-1.7,0.2c-0.6-0.5-1.3-0.8-2.1-0.8c-1.7,0-3.1,1.4-3.1,3.1c0,0,0,0,0,0 C9.8,9.2,8.2,8.3,7,7C6.9,6.8,6.8,6.8,6.6,6.8C6.4,6.8,6.3,6.9,6.2,7C5.9,7.5,5.8,8,5.8,8.6c0,0.5,0.1,1,0.3,1.4c0,0-0.1,0-0.1,0 c-0.2,0.1-0.2,0.3-0.2,0.4c0,0.9,0.4,1.7,1,2.3c-0.1,0.1-0.1,0.3-0.1,0.5c0.3,0.8,0.9,1.5,1.6,1.9c-0.8,0.4-1.7,0.5-2.6,0.4 c-0.2,0-0.5,0.1-0.5,0.3c-0.1,0.2,0,0.5,0.2,0.6c1.3,0.8,2.8,1.3,4.3,1.3c5,0,8-4.1,8-8c0,0,0-0.1,0-0.1c0.3-0.3,0.6-0.8,0.8-1.3 c0.1-0.3,0.2-0.5,0.3-0.7c0.1-0.2,0.1-0.4,0-0.5C18.8,6.9,18.6,6.8,18.4,6.9z M17,9c-0.1,0.1-0.2,0.3-0.2,0.4c0,0.1,0,0.2,0,0.3 c0,3.4-2.6,7-7,7c-0.7,0-1.4-0.1-2-0.3c0.8-0.2,1.6-0.6,2.2-1.1c0.2-0.1,0.2-0.4,0.2-0.6s-0.3-0.3-0.5-0.3c-0.6,0-1.2-0.3-1.6-0.8 c0.2,0,0.3,0,0.5-0.1c0.2-0.1,0.4-0.3,0.4-0.5c0-0.2-0.2-0.4-0.4-0.5c-0.7-0.1-1.3-0.7-1.6-1.4c0.2,0,0.4,0.1,0.5,0.1 c0.3,0,0.4-0.1,0.5-0.3s0-0.4-0.2-0.6C7.1,10,6.8,9.3,6.8,8.6c0-0.1,0-0.3,0-0.4c1.4,1.4,3.3,2.2,5.2,2.3c0.1,0,0.3-0.1,0.4-0.2 s0.1-0.3,0.1-0.4c0-0.2-0.1-0.3-0.1-0.5c0-1.2,1-2.1,2.1-2.1c0.6,0,1.1,0.2,1.6,0.7c0.1,0.1,0.3,0.2,0.5,0.1c0.2,0,0.6-0.1,1-0.1 C17.4,8.4,17.2,8.8,17,9z"/>
		<path d="M12,0C5.4,0,0,5.4,0,12c0,6.6,5.4,12,12,12c6.6,0,12-5.4,12-12C24,5.4,18.6,0,12,0z M12,23C5.9,23,1,18.1,1,12 S5.9,1,12,1s11,4.9,11,11S18.1,23,12,23z"/>
	</g>
</svg>
