<svg version="1.1" xmlns="http://www.w3.org/2000/svg" xmlns:xlink="http://www.w3.org/1999/xlink" viewBox="0 0 42 42">
	<g>
		<circle fill="none" stroke="#61C3A5" stroke-linecap="round" stroke-linejoin="round" stroke-miterlimit="10" cx="14.8" cy="27.2" r="5.3"/>
		<path fill="none" stroke="#61C3A5" stroke-linecap="round" stroke-linejoin="round" stroke-miterlimit="10" d="M26.1,24.8l2.8-1.6L25.4,17l-2.8,1.6c-1.2-1.1-2.6-1.9-4.2-2.4V13h-7.1v3.2 c-1.6,0.5-3,1.3-4.2,2.4L4.2,17l-3.6,6.2l2.8,1.6c-0.3,1.6-0.4,3.2,0,4.8l-2.8,1.6l3.6,6.2L7,35.8c1.2,1.1,2.6,1.9,4.2,2.4v3.2 h7.1v-3.2c1.6-0.5,3-1.3,4.2-2.4l2.8,1.6l3.6-6.2l-2.8-1.6C26.4,28.1,26.5,26.5,26.1,24.8z"/>
		<circle fill="none" stroke="#61C3A5" stroke-linecap="round" stroke-linejoin="round" stroke-miterlimit="10" cx="33.5" cy="8.5" r="2.7"/>
		<path fill="none" stroke="#61C3A5" stroke-linecap="round" stroke-linejoin="round" stroke-miterlimit="10" d="M39.5,7.1l1.8-1L39.6,3l-1.8,1c-0.7-0.6-1.5-1.2-2.5-1.4V0.5h-3.6v2.1 c-0.9,0.3-1.8,0.8-2.5,1.4l-1.8-1l-1.8,3.1l1.8,1c-0.2,1-0.2,2,0,2.9l-1.8,1l1.8,3.1l1.8-1c0.7,0.6,1.5,1.2,2.5,1.4v2.1h3.6v-2.1 c0.9-0.3,1.8-0.8,2.5-1.4l1.8,1l1.8-3.1l-1.8-1C39.8,9,39.8,8,39.5,7.1z"/>
	</g>
</svg>
