<?xml version="1.0" encoding="utf-8"?>
<!-- Generator: Adobe Illustrator 21.0.0, SVG Export Plug-In . SVG Version: 6.00 Build 0)  -->
<svg version="1.1" id="Layer_1" xmlns="http://www.w3.org/2000/svg" xmlns:xlink="http://www.w3.org/1999/xlink" x="0px" y="0px"
	 viewBox="0 0 42 42" style="enable-background:new 0 0 42 42;" xml:space="preserve">
<style type="text/css">
	.st0{fill:none;stroke:#61C3A5;stroke-linecap:round;stroke-linejoin:round;stroke-miterlimit:10;}
</style>
<g id="XMLID_108_">
	<g id="XMLID_111_">
		<g id="XMLID_112_">
			<polygon id="XMLID_690_" class="st0" points="29,30.8 29,41.5 2.3,41.5 2.3,4.1 39.7,4.1 39.7,30.8 			"/>
			<line id="XMLID_689_" class="st0" x1="39.7" y1="30.8" x2="29" y2="41.5"/>
		</g>
		<line id="XMLID_679_" class="st0" x1="7.6" y1="0.5" x2="7.6" y2="8.5"/>
		<line id="XMLID_678_" class="st0" x1="16.5" y1="0.5" x2="16.5" y2="8.5"/>
		<line id="XMLID_677_" class="st0" x1="25.5" y1="0.5" x2="25.5" y2="8.5"/>
		<line id="XMLID_676_" class="st0" x1="34.4" y1="0.5" x2="34.4" y2="8.5"/>
	</g>
	<path id="XMLID_672_" class="st0" d="M8.5,21.9l1.8-1.8c1-1,2.6-1,3.6,0s2.6,1,3.6,0c1-1,2.6-1,3.6,0c1,1,2.6,1,3.6,0
		c1-1,2.6-1,3.6,0c1,1,2.6,1,3.6,0l1.8-1.8"/>
	<path id="XMLID_640_" class="st0" d="M8.5,30.8l1.8-1.8c1-1,2.6-1,3.6,0c1,1,2.6,1,3.6,0"/>
</g>
</svg>
