<svg version="1.1" xmlns="http://www.w3.org/2000/svg" xmlns:xlink="http://www.w3.org/1999/xlink" viewBox="0 0 42 42">
	<g>
		<polyline fill="none" stroke="#61C3A5" stroke-linecap="round" stroke-linejoin="round" stroke-miterlimit="10" points="33.5,4.1 37,4.1 37,41.5 5,41.5 5,4.1 8.5,4.1"/>
		<path fill="none" stroke="#61C3A5" stroke-linecap="round" stroke-linejoin="round" stroke-miterlimit="10" d="M24.6,4.1c0-2-1.6-3.6-3.6-3.6c-2,0-3.6,1.6-3.6,3.6h-5.3v5.3h17.8V4.1H24.6z"/>
		<polyline fill="none" stroke="#61C3A5" stroke-linecap="round" stroke-linejoin="round" stroke-miterlimit="10" points="12.1,7.6 8.5,7.6 8.5,37.9 26.3,37.9 26.3,30.8 33.5,30.8 33.5,7.6 29.9,7.6"/>
		<line fill="none" stroke="#61C3A5" stroke-linecap="round" stroke-linejoin="round" stroke-miterlimit="10" x1="33.5" y1="30.8" x2="26.3" y2="37.9"/>
		<line fill="none" stroke="#61C3A5" stroke-linecap="round" stroke-linejoin="round" stroke-miterlimit="10" x1="13.9" y1="16.5" x2="28.1" y2="16.5"/>
		<line fill="none" stroke="#61C3A5" stroke-linecap="round" stroke-linejoin="round" stroke-miterlimit="10" x1="13.9" y1="20.1" x2="28.1" y2="20.1"/>
		<line fill="none" stroke="#61C3A5" stroke-linecap="round" stroke-linejoin="round" stroke-miterlimit="10" x1="13.9" y1="23.7" x2="28.1" y2="23.7"/>
		<line fill="none" stroke="#61C3A5" stroke-linecap="round" stroke-linejoin="round" stroke-miterlimit="10" x1="13.9" y1="27.2" x2="21.9" y2="27.2"/>
	</g>
</svg>
