<svg version="1.1" xmlns="http://www.w3.org/2000/svg" xmlns:xlink="http://www.w3.org/1999/xlink" viewBox="0 0 24 24">
	<g>
		<path class="st0" d="M22,20H2c-1.1,0-2-0.9-2-2V6c0-1.1,0.9-2,2-2h20c1.1,0,2,0.9,2,2v12C24,19.1,23.1,20,22,20z M2,5 C1.4,5,1,5.4,1,6v12c0,0.6,0.4,1,1,1h20c0.6,0,1-0.4,1-1V6c0-0.6-0.4-1-1-1H2z"/>
		<path class="st0" d="M12,14.5c-0.1,0-0.2,0-0.3-0.1L3.2,8.9C3,8.8,2.9,8.5,3.1,8.2s0.5-0.3,0.7-0.1l8.2,5.3l8.2-5.3 c0.2-0.1,0.5-0.1,0.7,0.1c0.1,0.2,0.1,0.5-0.1,0.7l-8.5,5.5C12.2,14.5,12.1,14.5,12,14.5z"/>
		<path class="st0" d="M3.5,16.5c-0.2,0-0.3-0.1-0.4-0.3C2.9,16,3,15.7,3.3,15.6l3.5-2c0.2-0.1,0.5-0.1,0.7,0.2s0.1,0.5-0.2,0.7 l-3.5,2C3.7,16.5,3.6,16.5,3.5,16.5z"/>
		<path class="st0" d="M20.5,16.5c-0.1,0-0.2,0-0.2-0.1l-3.5-2c-0.2-0.1-0.3-0.4-0.2-0.7c0.1-0.2,0.4-0.3,0.7-0.2l3.5,2 c0.2,0.1,0.3,0.4,0.2,0.7C20.8,16.4,20.7,16.5,20.5,16.5z"/>
	</g>
</svg>
